<svg width="98" height="42" viewBox="0 0 98 42" fill="none" xmlns="http://www.w3.org/2000/svg">
<mask id="path-1-outside-1_21_1486" maskUnits="userSpaceOnUse" x="9" y="18.5" width="80" height="21" fill="black">
<rect fill="white" x="9" y="18.5" width="80" height="21"/>
<path d="M10.5668 37.5V20.0455H16.4645C17.8338 20.0455 18.9531 20.2926 19.8224 20.7869C20.6974 21.2756 21.3452 21.9375 21.7656 22.7727C22.1861 23.608 22.3963 24.5398 22.3963 25.5682C22.3963 26.5966 22.1861 27.5312 21.7656 28.3722C21.3509 29.2131 20.7088 29.8835 19.8395 30.3835C18.9702 30.8778 17.8565 31.125 16.4986 31.125H12.2713V29.25H16.4304C17.3679 29.25 18.1207 29.0881 18.6889 28.7642C19.2571 28.4403 19.669 28.0028 19.9247 27.4517C20.1861 26.8949 20.3168 26.267 20.3168 25.5682C20.3168 24.8693 20.1861 24.2443 19.9247 23.6932C19.669 23.142 19.2543 22.7102 18.6804 22.3977C18.1065 22.0795 17.3452 21.9205 16.3963 21.9205H12.6804V37.5H10.5668ZM25.8011 37.5V20.0455H31.6989C33.0625 20.0455 34.1818 20.2784 35.0568 20.7443C35.9318 21.2045 36.5795 21.8381 37 22.6449C37.4205 23.4517 37.6307 24.3693 37.6307 25.3977C37.6307 26.4261 37.4205 27.3381 37 28.1335C36.5795 28.929 35.9347 29.554 35.0653 30.0085C34.196 30.4574 33.0852 30.6818 31.733 30.6818H26.9602V28.7727H31.6648C32.5966 28.7727 33.3466 28.6364 33.9148 28.3636C34.4886 28.0909 34.9034 27.7045 35.1591 27.2045C35.4205 26.6989 35.5511 26.0966 35.5511 25.3977C35.5511 24.6989 35.4205 24.0881 35.1591 23.5653C34.8977 23.0426 34.4801 22.6392 33.9062 22.3551C33.3324 22.0653 32.5739 21.9205 31.6307 21.9205H27.9148V37.5H25.8011ZM34.017 29.6591L38.3125 37.5H35.858L31.6307 29.6591H34.017ZM55.88 28.7727C55.88 30.6136 55.5476 32.2045 54.8828 33.5455C54.218 34.8864 53.3061 35.9205 52.147 36.6477C50.9879 37.375 49.6641 37.7386 48.1754 37.7386C46.6868 37.7386 45.3629 37.375 44.2038 36.6477C43.0447 35.9205 42.1328 34.8864 41.468 33.5455C40.8033 32.2045 40.4709 30.6136 40.4709 28.7727C40.4709 26.9318 40.8033 25.3409 41.468 24C42.1328 22.6591 43.0447 21.625 44.2038 20.8977C45.3629 20.1705 46.6868 19.8068 48.1754 19.8068C49.6641 19.8068 50.9879 20.1705 52.147 20.8977C53.3061 21.625 54.218 22.6591 54.8828 24C55.5476 25.3409 55.88 26.9318 55.88 28.7727ZM53.8345 28.7727C53.8345 27.2614 53.5817 25.9858 53.076 24.946C52.576 23.9062 51.897 23.1193 51.0391 22.5852C50.1868 22.0511 49.2322 21.7841 48.1754 21.7841C47.1186 21.7841 46.1612 22.0511 45.3033 22.5852C44.451 23.1193 43.772 23.9062 43.2663 24.946C42.7663 25.9858 42.5163 27.2614 42.5163 28.7727C42.5163 30.2841 42.7663 31.5597 43.2663 32.5994C43.772 33.6392 44.451 34.4261 45.3033 34.9602C46.1612 35.4943 47.1186 35.7614 48.1754 35.7614C49.2322 35.7614 50.1868 35.4943 51.0391 34.9602C51.897 34.4261 52.576 33.6392 53.076 32.5994C53.5817 31.5597 53.8345 30.2841 53.8345 28.7727ZM57.7528 21.9205V20.0455H70.8438V21.9205H65.3551V37.5H63.2415V21.9205H57.7528ZM88.1065 28.7727C88.1065 30.6136 87.7741 32.2045 87.1094 33.5455C86.4446 34.8864 85.5327 35.9205 84.3736 36.6477C83.2145 37.375 81.8906 37.7386 80.402 37.7386C78.9134 37.7386 77.5895 37.375 76.4304 36.6477C75.2713 35.9205 74.3594 34.8864 73.6946 33.5455C73.0298 32.2045 72.6974 30.6136 72.6974 28.7727C72.6974 26.9318 73.0298 25.3409 73.6946 24C74.3594 22.6591 75.2713 21.625 76.4304 20.8977C77.5895 20.1705 78.9134 19.8068 80.402 19.8068C81.8906 19.8068 83.2145 20.1705 84.3736 20.8977C85.5327 21.625 86.4446 22.6591 87.1094 24C87.7741 25.3409 88.1065 26.9318 88.1065 28.7727ZM86.0611 28.7727C86.0611 27.2614 85.8082 25.9858 85.3026 24.946C84.8026 23.9062 84.1236 23.1193 83.2656 22.5852C82.4134 22.0511 81.4588 21.7841 80.402 21.7841C79.3452 21.7841 78.3878 22.0511 77.5298 22.5852C76.6776 23.1193 75.9986 23.9062 75.4929 24.946C74.9929 25.9858 74.7429 27.2614 74.7429 28.7727C74.7429 30.2841 74.9929 31.5597 75.4929 32.5994C75.9986 33.6392 76.6776 34.4261 77.5298 34.9602C78.3878 35.4943 79.3452 35.7614 80.402 35.7614C81.4588 35.7614 82.4134 35.4943 83.2656 34.9602C84.1236 34.4261 84.8026 33.6392 85.3026 32.5994C85.8082 31.5597 86.0611 30.2841 86.0611 28.7727Z"/>
</mask>
<path d="M10.5668 37.5V20.0455H16.4645C17.8338 20.0455 18.9531 20.2926 19.8224 20.7869C20.6974 21.2756 21.3452 21.9375 21.7656 22.7727C22.1861 23.608 22.3963 24.5398 22.3963 25.5682C22.3963 26.5966 22.1861 27.5312 21.7656 28.3722C21.3509 29.2131 20.7088 29.8835 19.8395 30.3835C18.9702 30.8778 17.8565 31.125 16.4986 31.125H12.2713V29.25H16.4304C17.3679 29.25 18.1207 29.0881 18.6889 28.7642C19.2571 28.4403 19.669 28.0028 19.9247 27.4517C20.1861 26.8949 20.3168 26.267 20.3168 25.5682C20.3168 24.8693 20.1861 24.2443 19.9247 23.6932C19.669 23.142 19.2543 22.7102 18.6804 22.3977C18.1065 22.0795 17.3452 21.9205 16.3963 21.9205H12.6804V37.5H10.5668ZM25.8011 37.5V20.0455H31.6989C33.0625 20.0455 34.1818 20.2784 35.0568 20.7443C35.9318 21.2045 36.5795 21.8381 37 22.6449C37.4205 23.4517 37.6307 24.3693 37.6307 25.3977C37.6307 26.4261 37.4205 27.3381 37 28.1335C36.5795 28.929 35.9347 29.554 35.0653 30.0085C34.196 30.4574 33.0852 30.6818 31.733 30.6818H26.9602V28.7727H31.6648C32.5966 28.7727 33.3466 28.6364 33.9148 28.3636C34.4886 28.0909 34.9034 27.7045 35.1591 27.2045C35.4205 26.6989 35.5511 26.0966 35.5511 25.3977C35.5511 24.6989 35.4205 24.0881 35.1591 23.5653C34.8977 23.0426 34.4801 22.6392 33.9062 22.3551C33.3324 22.0653 32.5739 21.9205 31.6307 21.9205H27.9148V37.5H25.8011ZM34.017 29.6591L38.3125 37.5H35.858L31.6307 29.6591H34.017ZM55.88 28.7727C55.88 30.6136 55.5476 32.2045 54.8828 33.5455C54.218 34.8864 53.3061 35.9205 52.147 36.6477C50.9879 37.375 49.6641 37.7386 48.1754 37.7386C46.6868 37.7386 45.3629 37.375 44.2038 36.6477C43.0447 35.9205 42.1328 34.8864 41.468 33.5455C40.8033 32.2045 40.4709 30.6136 40.4709 28.7727C40.4709 26.9318 40.8033 25.3409 41.468 24C42.1328 22.6591 43.0447 21.625 44.2038 20.8977C45.3629 20.1705 46.6868 19.8068 48.1754 19.8068C49.6641 19.8068 50.9879 20.1705 52.147 20.8977C53.3061 21.625 54.218 22.6591 54.8828 24C55.5476 25.3409 55.88 26.9318 55.88 28.7727ZM53.8345 28.7727C53.8345 27.2614 53.5817 25.9858 53.076 24.946C52.576 23.9062 51.897 23.1193 51.0391 22.5852C50.1868 22.0511 49.2322 21.7841 48.1754 21.7841C47.1186 21.7841 46.1612 22.0511 45.3033 22.5852C44.451 23.1193 43.772 23.9062 43.2663 24.946C42.7663 25.9858 42.5163 27.2614 42.5163 28.7727C42.5163 30.2841 42.7663 31.5597 43.2663 32.5994C43.772 33.6392 44.451 34.4261 45.3033 34.9602C46.1612 35.4943 47.1186 35.7614 48.1754 35.7614C49.2322 35.7614 50.1868 35.4943 51.0391 34.9602C51.897 34.4261 52.576 33.6392 53.076 32.5994C53.5817 31.5597 53.8345 30.2841 53.8345 28.7727ZM57.7528 21.9205V20.0455H70.8438V21.9205H65.3551V37.5H63.2415V21.9205H57.7528ZM88.1065 28.7727C88.1065 30.6136 87.7741 32.2045 87.1094 33.5455C86.4446 34.8864 85.5327 35.9205 84.3736 36.6477C83.2145 37.375 81.8906 37.7386 80.402 37.7386C78.9134 37.7386 77.5895 37.375 76.4304 36.6477C75.2713 35.9205 74.3594 34.8864 73.6946 33.5455C73.0298 32.2045 72.6974 30.6136 72.6974 28.7727C72.6974 26.9318 73.0298 25.3409 73.6946 24C74.3594 22.6591 75.2713 21.625 76.4304 20.8977C77.5895 20.1705 78.9134 19.8068 80.402 19.8068C81.8906 19.8068 83.2145 20.1705 84.3736 20.8977C85.5327 21.625 86.4446 22.6591 87.1094 24C87.7741 25.3409 88.1065 26.9318 88.1065 28.7727ZM86.0611 28.7727C86.0611 27.2614 85.8082 25.9858 85.3026 24.946C84.8026 23.9062 84.1236 23.1193 83.2656 22.5852C82.4134 22.0511 81.4588 21.7841 80.402 21.7841C79.3452 21.7841 78.3878 22.0511 77.5298 22.5852C76.6776 23.1193 75.9986 23.9062 75.4929 24.946C74.9929 25.9858 74.7429 27.2614 74.7429 28.7727C74.7429 30.2841 74.9929 31.5597 75.4929 32.5994C75.9986 33.6392 76.6776 34.4261 77.5298 34.9602C78.3878 35.4943 79.3452 35.7614 80.402 35.7614C81.4588 35.7614 82.4134 35.4943 83.2656 34.9602C84.1236 34.4261 84.8026 33.6392 85.3026 32.5994C85.8082 31.5597 86.0611 30.2841 86.0611 28.7727Z" fill="white"/>
<path d="M10.5668 37.5H9.76676V38.3H10.5668V37.5ZM10.5668 20.0455V19.2455H9.76676V20.0455H10.5668ZM19.8224 20.7869L19.427 21.4824L19.4324 21.4854L19.8224 20.7869ZM21.7656 22.7727L21.0511 23.1324V23.1324L21.7656 22.7727ZM21.7656 28.3722L21.0501 28.0144L21.0482 28.0183L21.7656 28.3722ZM19.8395 30.3835L20.2349 31.079L20.2384 31.077L19.8395 30.3835ZM12.2713 31.125H11.4713V31.925H12.2713V31.125ZM12.2713 29.25V28.45H11.4713V29.25H12.2713ZM18.6889 28.7642L18.2928 28.0692L18.6889 28.7642ZM19.9247 27.4517L19.2005 27.1118L19.199 27.115L19.9247 27.4517ZM19.9247 23.6932L19.199 24.0299L19.2019 24.036L19.9247 23.6932ZM18.6804 22.3977L18.2925 23.0974L18.2978 23.1003L18.6804 22.3977ZM12.6804 21.9205V21.1205H11.8804V21.9205H12.6804ZM12.6804 37.5V38.3H13.4804V37.5H12.6804ZM11.3668 37.5V20.0455H9.76676V37.5H11.3668ZM10.5668 20.8455H16.4645V19.2455H10.5668V20.8455ZM16.4645 20.8455C17.7441 20.8455 18.7146 21.0773 19.427 21.4824L20.2179 20.0915C19.1916 19.5079 17.9235 19.2455 16.4645 19.2455V20.8455ZM19.4324 21.4854C20.1783 21.902 20.7077 22.4504 21.0511 23.1324L22.4802 22.413C21.9826 21.4246 21.2166 20.6492 20.2125 20.0885L19.4324 21.4854ZM21.0511 23.1324C21.4099 23.8453 21.5963 24.652 21.5963 25.5682H23.1963C23.1963 24.4275 22.9623 23.3706 22.4802 22.413L21.0511 23.1324ZM21.5963 25.5682C21.5963 26.4843 21.4099 27.2947 21.0501 28.0144L22.4812 28.7299C22.9622 27.7678 23.1963 26.7089 23.1963 25.5682H21.5963ZM21.0482 28.0183C20.7085 28.7068 20.1825 29.2634 19.4406 29.69L20.2384 31.077C21.2351 30.5037 21.9932 29.7193 22.4831 28.726L21.0482 28.0183ZM19.444 29.6881C18.7308 30.0937 17.7655 30.325 16.4986 30.325V31.925C17.9476 31.925 19.2095 31.662 20.2349 31.079L19.444 29.6881ZM16.4986 30.325H12.2713V31.925H16.4986V30.325ZM13.0713 31.125V29.25H11.4713V31.125H13.0713ZM12.2713 30.05H16.4304V28.45H12.2713V30.05ZM16.4304 30.05C17.4502 30.05 18.355 29.8754 19.0851 29.4592L18.2928 28.0692C17.8865 28.3008 17.2856 28.45 16.4304 28.45V30.05ZM19.0851 29.4592C19.786 29.0597 20.3194 28.502 20.6504 27.7884L19.199 27.115C19.0187 27.5037 18.7282 27.821 18.2928 28.0692L19.0851 29.4592ZM20.6489 27.7916C20.9666 27.1148 21.1168 26.3685 21.1168 25.5682H19.5168C19.5168 26.1656 19.4056 26.6749 19.2005 27.1118L20.6489 27.7916ZM21.1168 25.5682C21.1168 24.768 20.9666 24.0233 20.6476 23.3504L19.2019 24.036C19.4055 24.4654 19.5168 24.9706 19.5168 25.5682H21.1168ZM20.6504 23.3565C20.317 22.6378 19.7754 22.0831 19.063 21.6951L18.2978 23.1003C18.7331 23.3373 19.0211 23.6463 19.199 24.0299L20.6504 23.3565ZM19.0683 21.6981C18.3345 21.2912 17.4243 21.1205 16.3963 21.1205V22.7205C17.2661 22.7205 17.8786 22.8679 18.2925 23.0974L19.0683 21.6981ZM16.3963 21.1205H12.6804V22.7205H16.3963V21.1205ZM11.8804 21.9205V37.5H13.4804V21.9205H11.8804ZM12.6804 36.7H10.5668V38.3H12.6804V36.7ZM25.8011 37.5H25.0011V38.3H25.8011V37.5ZM25.8011 20.0455V19.2455H25.0011V20.0455H25.8011ZM35.0568 20.7443L34.6808 21.4505L34.6844 21.4524L35.0568 20.7443ZM37 22.6449L36.2906 23.0146V23.0146L37 22.6449ZM37 28.1335L36.2927 27.7597V27.7597L37 28.1335ZM35.0653 30.0085L35.4324 30.7194L35.436 30.7175L35.0653 30.0085ZM26.9602 30.6818H26.1602V31.4818H26.9602V30.6818ZM26.9602 28.7727V27.9727H26.1602V28.7727H26.9602ZM33.9148 28.3636L33.5714 27.6411L33.5686 27.6424L33.9148 28.3636ZM35.1591 27.2045L34.4484 26.8372L34.4468 26.8403L35.1591 27.2045ZM33.9062 22.3551L33.5456 23.0693L33.5513 23.0721L33.9062 22.3551ZM27.9148 21.9205V21.1205H27.1148V21.9205H27.9148ZM27.9148 37.5V38.3H28.7148V37.5H27.9148ZM34.017 29.6591L34.7187 29.2747L34.491 28.8591H34.017V29.6591ZM38.3125 37.5V38.3H39.6629L39.0141 37.1156L38.3125 37.5ZM35.858 37.5L35.1538 37.8796L35.3804 38.3H35.858V37.5ZM31.6307 29.6591V28.8591H30.2905L30.9265 30.0387L31.6307 29.6591ZM26.6011 37.5V20.0455H25.0011V37.5H26.6011ZM25.8011 20.8455H31.6989V19.2455H25.8011V20.8455ZM31.6989 20.8455C32.9782 20.8455 33.9568 21.0649 34.6808 21.4505L35.4328 20.0382C34.4068 19.4919 33.1468 19.2455 31.6989 19.2455V20.8455ZM34.6844 21.4524C35.4284 21.8436 35.952 22.3648 36.2906 23.0146L37.7094 22.2752C37.2071 21.3113 36.4353 20.5654 35.4292 20.0363L34.6844 21.4524ZM36.2906 23.0146C36.6441 23.6931 36.8307 24.4811 36.8307 25.3977H38.4307C38.4307 24.2576 38.1968 23.2103 37.7094 22.2752L36.2906 23.0146ZM36.8307 25.3977C36.8307 26.3146 36.6441 27.095 36.2927 27.7597L37.7073 28.5074C38.1968 27.5812 38.4307 26.5376 38.4307 25.3977H36.8307ZM36.2927 27.7597C35.9548 28.399 35.434 28.913 34.6947 29.2996L35.436 30.7175C36.4353 30.195 37.2043 29.459 37.7073 28.5074L36.2927 27.7597ZM34.6983 29.2977C33.9774 29.6699 33.0037 29.8818 31.733 29.8818V31.4818C33.1668 31.4818 34.4146 31.2449 35.4324 30.7194L34.6983 29.2977ZM31.733 29.8818H26.9602V31.4818H31.733V29.8818ZM27.7602 30.6818V28.7727H26.1602V30.6818H27.7602ZM26.9602 29.5727H31.6648V27.9727H26.9602V29.5727ZM31.6648 29.5727C32.6638 29.5727 33.5456 29.4282 34.261 29.0849L33.5686 27.6424C33.1476 27.8445 32.5294 27.9727 31.6648 27.9727V29.5727ZM34.2582 29.0862C34.9691 28.7483 35.5251 28.2459 35.8714 27.5688L34.4468 26.8403C34.2817 27.1632 34.0081 27.4335 33.5714 27.6411L34.2582 29.0862ZM35.8698 27.5719C36.2017 26.9296 36.3511 26.1957 36.3511 25.3977H34.7511C34.7511 25.9974 34.6392 26.4681 34.4484 26.8372L35.8698 27.5719ZM36.3511 25.3977C36.3511 24.5988 36.2014 23.8611 35.8746 23.2076L34.4436 23.9231C34.6395 24.315 34.7511 24.799 34.7511 25.3977H36.3511ZM35.8746 23.2076C35.5278 22.514 34.9753 21.9917 34.2612 21.6382L33.5513 23.0721C33.9849 23.2867 34.2676 23.5712 34.4436 23.9231L35.8746 23.2076ZM34.2668 21.641C33.5412 21.2746 32.6451 21.1205 31.6307 21.1205V22.7205C32.5027 22.7205 33.1235 22.8561 33.5457 23.0692L34.2668 21.641ZM31.6307 21.1205H27.9148V22.7205H31.6307V21.1205ZM27.1148 21.9205V37.5H28.7148V21.9205H27.1148ZM27.9148 36.7H25.8011V38.3H27.9148V36.7ZM33.3154 30.0435L37.6109 37.8844L39.0141 37.1156L34.7187 29.2747L33.3154 30.0435ZM38.3125 36.7H35.858V38.3H38.3125V36.7ZM36.5621 37.1204L32.3349 29.2794L30.9265 30.0387L35.1538 37.8796L36.5621 37.1204ZM31.6307 30.4591H34.017V28.8591H31.6307V30.4591ZM54.8828 33.5455L54.1661 33.1901L54.8828 33.5455ZM52.147 36.6477L52.5722 37.3254L52.147 36.6477ZM44.2038 36.6477L43.7786 37.3254L44.2038 36.6477ZM41.468 33.5455L42.1848 33.1901L41.468 33.5455ZM52.147 20.8977L52.5722 20.2201L52.147 20.8977ZM54.8828 24L54.1661 24.3553L54.8828 24ZM53.076 24.946L52.355 25.2927L52.3566 25.2959L53.076 24.946ZM51.0391 22.5852L50.6143 23.2631L50.6163 23.2644L51.0391 22.5852ZM45.3033 22.5852L44.8805 21.9061L44.8785 21.9073L45.3033 22.5852ZM43.2663 24.946L42.5469 24.5961L42.5454 24.5993L43.2663 24.946ZM43.2663 32.5994L42.5454 32.9461L42.5469 32.9493L43.2663 32.5994ZM45.3033 34.9602L44.8785 35.6381L44.8805 35.6394L45.3033 34.9602ZM51.0391 34.9602L50.6163 34.2811L50.6143 34.2823L51.0391 34.9602ZM53.076 32.5994L52.3566 32.2495L52.355 32.2527L53.076 32.5994ZM55.08 28.7727C55.08 30.5182 54.7649 31.9821 54.1661 33.1901L55.5996 33.9008C56.3302 32.4269 56.68 30.7091 56.68 28.7727H55.08ZM54.1661 33.1901C53.5605 34.4116 52.7443 35.3286 51.7218 35.9701L52.5722 37.3254C53.868 36.5124 54.8756 35.3612 55.5996 33.9008L54.1661 33.1901ZM51.7218 35.9701C50.7013 36.6104 49.5274 36.9386 48.1754 36.9386V38.5386C49.8008 38.5386 51.2746 38.1396 52.5722 37.3254L51.7218 35.9701ZM48.1754 36.9386C46.8235 36.9386 45.6496 36.6104 44.629 35.9701L43.7786 37.3254C45.0763 38.1396 46.5501 38.5386 48.1754 38.5386V36.9386ZM44.629 35.9701C43.6066 35.3286 42.7903 34.4116 42.1848 33.1901L40.7513 33.9008C41.4753 35.3612 42.4829 36.5124 43.7786 37.3254L44.629 35.9701ZM42.1848 33.1901C41.5859 31.9821 41.2709 30.5182 41.2709 28.7727H39.6709C39.6709 30.7091 40.0206 32.4269 40.7513 33.9008L42.1848 33.1901ZM41.2709 28.7727C41.2709 27.0273 41.5859 25.5633 42.1848 24.3553L40.7513 23.6447C40.0206 25.1185 39.6709 26.8364 39.6709 28.7727H41.2709ZM42.1848 24.3553C42.7903 23.1339 43.6066 22.2169 44.629 21.5754L43.7786 20.2201C42.4829 21.0331 41.4753 22.1843 40.7513 23.6447L42.1848 24.3553ZM44.629 21.5754C45.6496 20.935 46.8235 20.6068 48.1754 20.6068V19.0068C46.5501 19.0068 45.0763 19.4059 43.7786 20.2201L44.629 21.5754ZM48.1754 20.6068C49.5274 20.6068 50.7013 20.935 51.7218 21.5754L52.5722 20.2201C51.2746 19.4059 49.8008 19.0068 48.1754 19.0068V20.6068ZM51.7218 21.5754C52.7443 22.2169 53.5605 23.1339 54.1661 24.3553L55.5996 23.6447C54.8756 22.1843 53.868 21.0331 52.5722 20.2201L51.7218 21.5754ZM54.1661 24.3553C54.7649 25.5633 55.08 27.0273 55.08 28.7727H56.68C56.68 26.8364 56.3302 25.1185 55.5996 23.6447L54.1661 24.3553ZM54.6345 28.7727C54.6345 27.1759 54.3678 25.7731 53.7954 24.5961L52.3566 25.2959C52.7955 26.1985 53.0345 27.3468 53.0345 28.7727H54.6345ZM53.797 24.5993C53.2407 23.4426 52.4663 22.5313 51.4618 21.9061L50.6163 23.2644C51.3278 23.7073 51.9113 24.3699 52.355 25.2927L53.797 24.5993ZM51.4639 21.9073C50.4777 21.2893 49.3745 20.9841 48.1754 20.9841V22.5841C49.09 22.5841 49.8959 22.813 50.6143 23.2631L51.4639 21.9073ZM48.1754 20.9841C46.9763 20.9841 45.8713 21.2893 44.8805 21.9061L45.7261 23.2644C46.4512 22.813 47.2609 22.5841 48.1754 22.5841V20.9841ZM44.8785 21.9073C43.8811 22.5323 43.1081 23.4422 42.5469 24.5961L43.9858 25.2959C44.4359 24.3703 45.0209 23.7063 45.7281 23.2631L44.8785 21.9073ZM42.5454 24.5993C41.9798 25.7754 41.7163 27.177 41.7163 28.7727H43.3163C43.3163 27.3457 43.5528 26.1962 43.9873 25.2927L42.5454 24.5993ZM41.7163 28.7727C41.7163 30.3684 41.9798 31.7701 42.5454 32.9461L43.9873 32.2527C43.5528 31.3493 43.3163 30.1997 43.3163 28.7727H41.7163ZM42.5469 32.9493C43.1081 34.1033 43.8811 35.0131 44.8785 35.6381L45.7281 34.2823C45.0209 33.8392 44.4359 33.1751 43.9858 32.2495L42.5469 32.9493ZM44.8805 35.6394C45.8713 36.2562 46.9763 36.5614 48.1754 36.5614V34.9614C47.2609 34.9614 46.4512 34.7325 45.7261 34.2811L44.8805 35.6394ZM48.1754 36.5614C49.3745 36.5614 50.4777 36.2561 51.4639 35.6381L50.6143 34.2823C49.8959 34.7325 49.09 34.9614 48.1754 34.9614V36.5614ZM51.4618 35.6394C52.4663 35.0141 53.2407 34.1029 53.797 32.9461L52.355 32.2527C51.9113 33.1755 51.3278 33.8382 50.6163 34.2811L51.4618 35.6394ZM53.7954 32.9493C54.3678 31.7724 54.6345 30.3695 54.6345 28.7727H53.0345C53.0345 30.1986 52.7955 31.3469 52.3566 32.2495L53.7954 32.9493ZM57.7528 21.9205H56.9528V22.7205H57.7528V21.9205ZM57.7528 20.0455V19.2455H56.9528V20.0455H57.7528ZM70.8438 20.0455H71.6438V19.2455H70.8438V20.0455ZM70.8438 21.9205V22.7205H71.6438V21.9205H70.8438ZM65.3551 21.9205V21.1205H64.5551V21.9205H65.3551ZM65.3551 37.5V38.3H66.1551V37.5H65.3551ZM63.2415 37.5H62.4415V38.3H63.2415V37.5ZM63.2415 21.9205H64.0415V21.1205H63.2415V21.9205ZM58.5528 21.9205V20.0455H56.9528V21.9205H58.5528ZM57.7528 20.8455H70.8438V19.2455H57.7528V20.8455ZM70.0437 20.0455V21.9205H71.6438V20.0455H70.0437ZM70.8438 21.1205H65.3551V22.7205H70.8438V21.1205ZM64.5551 21.9205V37.5H66.1551V21.9205H64.5551ZM65.3551 36.7H63.2415V38.3H65.3551V36.7ZM64.0415 37.5V21.9205H62.4415V37.5H64.0415ZM63.2415 21.1205H57.7528V22.7205H63.2415V21.1205ZM87.1094 33.5455L86.3926 33.1901L87.1094 33.5455ZM84.3736 36.6477L84.7988 37.3254L84.3736 36.6477ZM76.4304 36.6477L76.0052 37.3254L76.4304 36.6477ZM73.6946 33.5455L74.4114 33.1901L73.6946 33.5455ZM84.3736 20.8977L84.7988 20.2201L84.3736 20.8977ZM87.1094 24L86.3926 24.3553L87.1094 24ZM85.3026 24.946L84.5816 25.2927L84.5831 25.2959L85.3026 24.946ZM83.2656 22.5852L82.8408 23.2631L82.8428 23.2644L83.2656 22.5852ZM77.5298 22.5852L77.107 21.9061L77.105 21.9073L77.5298 22.5852ZM75.4929 24.946L74.7735 24.5961L74.7719 24.5993L75.4929 24.946ZM75.4929 32.5994L74.7719 32.9461L74.7735 32.9493L75.4929 32.5994ZM77.5298 34.9602L77.105 35.6381L77.107 35.6394L77.5298 34.9602ZM83.2656 34.9602L82.8428 34.2811L82.8408 34.2823L83.2656 34.9602ZM85.3026 32.5994L84.5831 32.2495L84.5816 32.2527L85.3026 32.5994ZM87.3065 28.7727C87.3065 30.5182 86.9915 31.9821 86.3926 33.1901L87.8261 33.9008C88.5568 32.4269 88.9065 30.7091 88.9065 28.7727H87.3065ZM86.3926 33.1901C85.7871 34.4116 84.9708 35.3286 83.9484 35.9701L84.7988 37.3254C86.0945 36.5124 87.1021 35.3612 87.8261 33.9008L86.3926 33.1901ZM83.9484 35.9701C82.9279 36.6104 81.7539 36.9386 80.402 36.9386V38.5386C82.0273 38.5386 83.5011 38.1396 84.7988 37.3254L83.9484 35.9701ZM80.402 36.9386C79.05 36.9386 77.8761 36.6104 76.8556 35.9701L76.0052 37.3254C77.3029 38.1396 78.7767 38.5386 80.402 38.5386V36.9386ZM76.8556 35.9701C75.8332 35.3286 75.0169 34.4116 74.4114 33.1901L72.9779 33.9008C73.7018 35.3612 74.7094 36.5124 76.0052 37.3254L76.8556 35.9701ZM74.4114 33.1901C73.8125 31.9821 73.4974 30.5182 73.4974 28.7727H71.8974C71.8974 30.7091 72.2472 32.4269 72.9779 33.9008L74.4114 33.1901ZM73.4974 28.7727C73.4974 27.0273 73.8125 25.5633 74.4114 24.3553L72.9779 23.6447C72.2472 25.1185 71.8974 26.8364 71.8974 28.7727H73.4974ZM74.4114 24.3553C75.0169 23.1339 75.8332 22.2169 76.8556 21.5754L76.0052 20.2201C74.7094 21.0331 73.7018 22.1843 72.9779 23.6447L74.4114 24.3553ZM76.8556 21.5754C77.8761 20.935 79.05 20.6068 80.402 20.6068V19.0068C78.7767 19.0068 77.3029 19.4059 76.0052 20.2201L76.8556 21.5754ZM80.402 20.6068C81.7539 20.6068 82.9279 20.935 83.9484 21.5754L84.7988 20.2201C83.5011 19.4059 82.0273 19.0068 80.402 19.0068V20.6068ZM83.9484 21.5754C84.9708 22.2169 85.7871 23.1339 86.3926 24.3553L87.8261 23.6447C87.1021 22.1843 86.0945 21.0331 84.7988 20.2201L83.9484 21.5754ZM86.3926 24.3553C86.9915 25.5633 87.3065 27.0273 87.3065 28.7727H88.9065C88.9065 26.8364 88.5568 25.1185 87.8261 23.6447L86.3926 24.3553ZM86.8611 28.7727C86.8611 27.1759 86.5944 25.7731 86.022 24.5961L84.5831 25.2959C85.0221 26.1985 85.2611 27.3468 85.2611 28.7727H86.8611ZM86.0235 24.5993C85.4673 23.4426 84.6928 22.5313 83.6884 21.9061L82.8428 23.2644C83.5543 23.7073 84.1378 24.3699 84.5816 25.2927L86.0235 24.5993ZM83.6904 21.9073C82.7042 21.2893 81.6011 20.9841 80.402 20.9841V22.5841C81.3165 22.5841 82.1225 22.813 82.8408 23.2631L83.6904 21.9073ZM80.402 20.9841C79.2029 20.9841 78.0978 21.2893 77.107 21.9061L77.9526 23.2644C78.6777 22.813 79.4875 22.5841 80.402 22.5841V20.9841ZM77.105 21.9073C76.1077 22.5323 75.3347 23.4422 74.7735 24.5961L76.2123 25.2959C76.6625 24.3703 77.2475 23.7063 77.9546 23.2631L77.105 21.9073ZM74.7719 24.5993C74.2064 25.7754 73.9429 27.177 73.9429 28.7727H75.5429C75.5429 27.3457 75.7794 26.1962 76.2139 25.2927L74.7719 24.5993ZM73.9429 28.7727C73.9429 30.3684 74.2064 31.7701 74.7719 32.9461L76.2139 32.2527C75.7794 31.3493 75.5429 30.1997 75.5429 28.7727H73.9429ZM74.7735 32.9493C75.3347 34.1033 76.1077 35.0131 77.105 35.6381L77.9546 34.2823C77.2475 33.8392 76.6625 33.1751 76.2123 32.2495L74.7735 32.9493ZM77.107 35.6394C78.0978 36.2562 79.2029 36.5614 80.402 36.5614V34.9614C79.4875 34.9614 78.6777 34.7325 77.9526 34.2811L77.107 35.6394ZM80.402 36.5614C81.6011 36.5614 82.7042 36.2561 83.6904 35.6381L82.8408 34.2823C82.1225 34.7325 81.3165 34.9614 80.402 34.9614V36.5614ZM83.6884 35.6394C84.6928 35.0141 85.4673 34.1029 86.0235 32.9461L84.5816 32.2527C84.1378 33.1755 83.5543 33.8382 82.8428 34.2811L83.6884 35.6394ZM86.022 32.9493C86.5944 31.7724 86.8611 30.3695 86.8611 28.7727H85.2611C85.2611 30.1986 85.0221 31.3469 84.5831 32.2495L86.022 32.9493Z" fill="white" mask="url(#path-1-outside-1_21_1486)"/>
<path d="M37.0067 7.5C36.8973 7.16525 36.7531 6.86529 36.5741 6.60014C36.3985 6.33168 36.188 6.10298 35.9427 5.91406C35.7008 5.72514 35.4257 5.58097 35.1175 5.48153C34.8092 5.3821 34.4711 5.33239 34.1032 5.33239C33.5 5.33239 32.9515 5.48816 32.4577 5.79972C31.9638 6.11127 31.5711 6.57031 31.2794 7.17685C30.9877 7.78338 30.8419 8.52746 30.8419 9.40909C30.8419 10.2907 30.9894 11.0348 31.2844 11.6413C31.5793 12.2479 31.9787 12.7069 32.4825 13.0185C32.9863 13.33 33.5531 13.4858 34.1828 13.4858C34.7661 13.4858 35.2799 13.3615 35.724 13.1129C36.1714 12.861 36.5194 12.5064 36.768 12.049C37.0199 11.5883 37.1459 11.0464 37.1459 10.4233L37.5237 10.5028H34.4612V9.40909H38.339V10.5028C38.339 11.3414 38.1601 12.0705 37.8021 12.6903C37.4475 13.3101 36.9569 13.7907 36.3305 14.1321C35.7074 14.4702 34.9915 14.6392 34.1828 14.6392C33.2813 14.6392 32.4891 14.4271 31.8064 14.0028C31.1269 13.5786 30.5966 12.9754 30.2155 12.1932C29.8376 11.411 29.6487 10.483 29.6487 9.40909C29.6487 8.60369 29.7564 7.8795 29.9719 7.23651C30.1906 6.5902 30.4988 6.04001 30.8966 5.58594C31.2943 5.13187 31.7649 4.78385 32.3085 4.5419C32.8521 4.29995 33.4503 4.17898 34.1032 4.17898C34.6402 4.17898 35.1407 4.26018 35.6047 4.42258C36.072 4.58168 36.488 4.80871 36.8525 5.10369C37.2204 5.39536 37.527 5.74503 37.7723 6.1527C38.0175 6.55705 38.1866 7.00616 38.2794 7.5H37.0067ZM40.5539 14.5H39.2613L42.9999 4.31818H44.2726L48.0113 14.5H46.7187L43.676 5.92898H43.5965L40.5539 14.5ZM41.0312 10.5227H46.2414V11.6165H41.0312V10.5227ZM49.5972 4.31818H51.0688L54.529 12.7699H54.6483L58.1086 4.31818H59.5802V14.5H58.4268V6.7642H58.3273L55.1455 14.5H54.0319L50.8501 6.7642H50.7506V14.5H49.5972V4.31818ZM62.0523 14.5V4.31818H68.1972V5.41193H63.2852V8.85227H67.879V9.94602H63.2852V13.4062H68.2767V14.5H62.0523Z" fill="white"/>
</svg>
